<?xml version="1.0" encoding="UTF-8" standalone="no"?>
<!DOCTYPE svg PUBLIC "-//W3C//DTD SVG 1.1//EN" "http://www.w3.org/Graphics/SVG/1.1/DTD/svg11.dtd">
<svg viewBox="0 250 690 200" xmlns="http://www.w3.org/2000/svg" version="1.1">
<path d="M 443.48 259.81 C 455.77 260.72 466.49 267.35 474.34 276.61 C 475.21 277.90 477.08 279.03 476.70 280.69 L 475.42 280.67 C 470.31 273.49 463.11 267.39 454.87 264.16 C 446.32 260.67 436.85 260.27 428.01 262.95 C 415.62 266.56 405.05 275.98 399.55 287.60 L 398.21 287.82 C 397.38 286.63 399.34 284.91 399.76 283.73 C 408.55 268.39 425.54 258.07 443.48 259.81 Z" fill="#2b2a28" />
<path d="M 447.15 264.87 C 458.20 267.50 468.13 273.89 473.77 283.94 C 472.10 287.79 470.16 291.77 469.12 295.84 L 468.28 295.39 C 466.80 289.26 462.28 283.54 457.41 279.63 C 449.75 273.34 439.20 271.36 429.84 274.76 C 420.35 278.18 413.75 285.95 410.01 295.11 C 407.64 292.88 404.85 291.35 401.92 289.99 C 405.19 283.21 409.49 277.12 415.49 272.49 C 424.30 265.45 436.08 262.46 447.15 264.87 Z" fill="#2b2a28" />
<path d="M 509.99 266.80 C 522.82 264.63 538.30 267.70 547.67 277.30 C 557.06 286.61 560.68 300.90 561.57 313.71 C 558.81 313.37 557.05 312.83 554.13 313.67 C 553.51 309.09 553.14 304.49 551.78 300.02 C 549.28 290.92 544.48 282.67 536.04 277.95 C 527.93 273.77 517.66 272.55 508.82 274.81 C 499.67 277.14 492.38 283.57 487.51 291.49 C 482.99 298.02 482.56 305.48 483.35 313.16 C 484.68 321.81 488.16 330.23 495.07 335.89 C 504.28 343.51 518.08 346.17 529.30 341.93 L 530.18 342.51 C 530.18 344.74 530.20 346.98 530.38 349.20 C 529.42 350.50 526.55 350.53 525.02 350.77 C 519.95 351.08 517.26 347.66 512.87 346.17 C 510.65 345.23 508.43 345.15 506.00 344.88 C 501.66 344.77 498.01 346.33 493.88 344.18 C 486.43 339.90 481.38 332.48 478.48 324.54 C 474.98 314.92 474.27 303.52 477.81 293.82 C 483.62 280.35 495.18 269.31 509.99 266.80 Z" fill="#2b2a28" />
<path d="M 110.73 274.90 L 110.75 274.79 L 111.04 275.51 C 115.18 274.88 119.39 274.81 123.50 275.71 C 133.23 277.47 141.49 284.31 145.66 293.20 C 149.73 301.81 150.17 313.16 145.16 321.46 L 143.84 320.92 C 149.00 311.30 148.03 299.00 142.00 289.99 C 137.05 282.18 128.22 277.16 119.00 276.81 C 111.33 276.25 103.36 278.57 97.22 283.22 C 86.04 292.12 82.45 310.45 90.59 322.45 C 93.54 327.19 97.73 331.78 102.87 334.14 C 108.53 336.98 114.50 337.49 120.74 337.41 L 120.99 338.92 C 113.29 339.47 104.91 337.98 98.51 333.45 C 93.29 329.76 89.32 324.23 86.63 318.50 C 82.49 307.88 84.84 294.77 92.08 286.02 C 95.70 281.61 100.57 278.68 105.93 276.87 C 107.52 276.42 108.87 275.66 110.58 276.00 L 110.73 274.90 Z" fill="#2b2a28" />
<path d="M 441.47 281.86 C 451.02 282.63 458.59 289.78 461.12 298.84 C 462.95 304.59 460.79 311.65 457.50 316.51 C 454.11 322.07 447.22 324.87 441.03 325.70 C 438.75 325.66 435.46 326.08 433.54 324.65 C 433.67 324.23 433.83 323.83 434.03 323.45 C 440.37 325.02 446.60 323.43 452.05 320.03 C 456.34 316.74 458.61 312.01 459.88 306.86 C 461.54 297.50 455.06 287.57 446.21 284.51 C 438.58 281.64 429.75 284.54 424.13 290.14 C 420.75 293.58 419.34 297.96 418.63 302.62 L 417.31 302.65 C 417.36 290.35 429.54 280.86 441.47 281.86 Z" fill="#2b2a28" />
<path d="M 235.98 308.11 C 241.05 319.52 240.80 333.07 235.26 344.26 C 229.74 355.07 219.41 363.36 207.82 366.81 C 200.34 368.97 193.11 368.86 185.75 366.34 C 178.85 363.91 172.01 360.36 166.45 355.56 L 166.23 355.00 C 167.59 352.34 167.87 349.06 167.92 346.13 L 168.79 346.43 C 170.54 349.35 173.72 351.59 176.46 353.54 C 182.30 357.07 189.09 360.34 195.99 360.76 C 206.50 361.24 216.97 355.54 223.82 347.82 C 235.49 334.73 234.65 313.15 222.01 301.01 C 214.72 293.80 204.24 289.69 193.99 290.22 C 185.83 290.65 178.99 294.72 172.97 299.95 C 164.93 307.32 161.24 318.14 161.87 328.92 C 159.61 326.96 157.40 325.14 154.65 323.89 C 154.25 305.63 168.17 289.64 185.02 284.19 C 204.64 278.33 227.88 289.34 235.98 308.11 Z" fill="#2b2a28" />
<path d="M 119.00 286.10 C 125.00 286.53 130.76 289.89 134.29 294.72 C 138.77 300.71 139.71 308.94 136.79 315.81 C 133.45 324.05 124.89 329.46 116.00 328.93 C 107.77 328.78 100.20 323.42 97.03 315.87 C 94.37 309.65 94.82 302.24 98.36 296.46 C 102.54 289.40 110.82 285.12 119.00 286.10 Z" fill="#2b2a28" />
<path d="M 531.03 289.96 C 537.48 294.01 541.67 301.34 541.52 309.00 C 541.64 316.07 537.88 323.10 532.12 327.15 C 526.89 330.93 520.37 332.49 514.00 331.47 C 506.17 330.39 499.12 325.21 495.93 317.97 C 492.40 310.32 493.76 300.73 499.39 294.44 C 506.87 285.27 521.27 283.47 531.03 289.96 Z" fill="#2b2a28" />
<path d="M 614.81 289.13 L 615.03 289.22 L 615.69 289.51 C 624.82 288.56 633.59 295.29 635.98 303.97 C 637.06 309.40 636.08 314.84 633.71 319.78 C 632.66 319.69 632.24 319.27 632.45 318.52 C 635.31 312.81 636.09 305.29 632.38 299.76 C 628.49 293.54 621.31 289.93 613.99 291.32 C 606.28 292.70 599.91 298.90 599.17 306.83 C 598.94 308.04 599.52 309.67 598.73 310.64 C 598.26 310.38 597.84 310.06 597.46 309.70 C 596.92 299.79 604.49 290.73 614.36 289.81 L 614.81 289.13 Z" fill="#2b2a28" />
<path d="M 389.41 296.58 C 397.57 300.37 404.84 306.51 410.86 313.13 C 418.60 321.86 423.59 332.07 427.35 343.04 C 424.31 346.76 420.86 350.19 417.90 353.99 C 417.60 354.39 417.17 354.67 416.62 354.83 C 414.66 340.20 407.37 326.49 396.25 316.76 C 386.75 307.79 374.11 302.53 361.00 302.58 C 345.46 302.32 330.11 306.86 318.57 317.57 C 307.51 328.32 301.01 343.55 300.90 358.99 L 300.31 358.53 C 297.77 353.19 294.64 348.20 290.33 344.09 C 291.35 338.36 292.96 332.73 295.46 327.46 C 299.49 318.94 305.80 312.02 313.03 306.07 C 322.18 298.42 333.30 293.65 345.00 291.55 C 359.71 289.02 375.86 289.88 389.41 296.58 Z" fill="#2b2a28" />
<path d="M 614.98 294.34 C 622.23 293.51 629.66 297.92 631.48 305.15 C 632.06 308.76 631.77 312.96 629.91 316.19 C 628.77 315.78 627.61 315.43 626.44 315.16 C 629.04 311.40 629.78 306.01 626.72 302.29 C 623.25 297.53 616.72 296.13 611.39 298.36 C 607.98 300.64 605.41 304.46 605.39 308.66 C 604.78 309.18 603.80 309.41 602.44 309.34 C 601.87 302.47 607.64 294.46 614.98 294.34 Z" fill="#2b2a28" />
<path d="M 197.00 297.78 C 207.35 297.64 217.35 303.73 222.02 312.96 C 226.13 320.73 226.18 330.30 222.08 338.09 C 217.45 347.34 207.38 353.57 197.00 353.36 C 189.74 353.52 182.63 350.64 177.41 345.62 C 170.03 338.85 167.04 328.14 169.68 318.51 C 172.76 306.42 184.50 297.46 197.00 297.78 Z" fill="#2b2a28" />
<path d="M 40.00 298.65 C 47.63 298.39 55.29 302.06 60.12 307.93 C 65.31 313.97 67.36 322.81 65.28 330.49 C 63.52 338.12 57.92 344.56 50.82 347.74 C 43.93 350.84 35.56 350.80 28.79 347.39 C 21.87 344.13 16.67 337.59 14.96 330.15 C 12.87 321.57 15.61 312.11 22.01 306.01 C 26.70 301.34 33.36 298.55 40.00 298.65 Z" fill="#2b2a28" />
<path d="M 205.99 300.99 C 217.46 304.83 225.09 316.99 223.24 329.01 C 222.18 337.96 216.19 345.67 208.06 349.40 C 201.02 352.57 192.83 352.60 185.79 349.40 C 177.95 345.87 172.12 338.54 170.76 330.01 C 168.85 320.39 173.31 309.81 181.41 304.30 C 188.42 299.27 197.90 297.91 205.99 300.99 Z" fill="#ffffff" />
<path d="M 622.95 303.05 C 625.72 305.66 625.79 309.34 624.69 312.78 C 623.57 313.06 622.32 312.07 621.25 311.74 C 621.61 310.48 622.28 309.31 622.15 308.01 C 621.76 304.28 616.58 302.03 613.79 304.81 C 612.38 305.91 612.33 307.30 611.86 308.88 C 610.92 309.01 609.97 309.11 609.02 309.19 C 608.97 306.66 609.84 304.36 611.63 302.56 C 614.76 299.61 620.04 299.90 622.95 303.05 Z" fill="#2b2a28" />
<path d="M 35.51 303.68 C 42.90 302.01 50.76 304.55 55.91 310.06 C 59.10 313.62 61.21 318.19 61.43 323.00 C 62.07 331.22 57.33 339.32 50.00 343.01 C 41.39 347.61 30.29 345.41 23.95 338.02 C 18.71 331.93 17.25 323.06 20.71 315.73 C 23.44 309.66 29.02 305.16 35.51 303.68 Z" fill="#ffffff" />
<path d="M 46.02 305.82 C 50.83 307.15 55.34 310.97 57.60 315.41 C 60.96 321.71 60.41 329.48 56.24 335.26 C 51.29 342.43 41.63 345.33 33.49 342.37 C 25.88 339.71 20.34 332.15 20.62 324.01 C 20.56 316.66 25.20 309.86 31.78 306.77 C 36.12 304.78 41.48 304.28 46.02 305.82 Z" fill="#2b2a28" />
<path d="M 37.98 306.73 C 44.92 305.75 52.18 309.24 55.71 315.30 C 57.87 318.81 58.45 322.82 57.94 326.87 C 56.80 335.29 49.21 341.62 40.83 341.91 C 34.46 342.11 28.01 338.84 24.74 333.30 C 22.31 329.38 21.54 324.44 22.71 319.96 C 24.45 312.92 30.75 307.42 37.98 306.73 Z" fill="#ffffff" />
<path d="M 360.00 307.34 C 372.96 307.55 385.83 312.79 395.04 321.94 C 404.30 330.90 409.95 343.20 411.16 355.99 C 411.38 362.48 409.14 367.91 407.49 373.99 C 406.83 376.89 406.79 380.02 405.80 382.82 C 403.75 387.12 400.78 391.04 397.45 394.45 C 388.54 403.47 376.83 410.29 364.01 411.36 C 349.68 412.80 334.73 408.74 323.74 399.27 C 312.43 389.39 306.25 373.85 306.05 359.00 C 305.67 345.48 311.89 331.89 321.53 322.56 C 331.66 312.58 345.80 307.03 360.00 307.34 Z" fill="#2b2a28" />
<path d="M 379.89 315.11 C 391.83 320.73 401.04 331.31 405.27 343.78 C 407.19 349.60 408.87 356.40 407.86 362.53 C 406.94 371.70 404.49 380.49 398.70 387.82 C 391.53 397.14 381.06 404.71 369.51 407.36 C 356.15 410.35 341.33 407.80 329.96 400.08 C 321.89 394.74 316.02 386.49 312.65 377.49 C 308.15 365.38 307.49 351.87 313.08 339.98 C 319.22 326.04 332.06 315.48 346.85 311.93 C 357.80 309.08 369.68 310.25 379.89 315.11 Z" fill="#ffffff" />
<path d="M 36.51 313.75 C 40.23 312.61 44.34 313.21 47.42 315.65 C 52.49 319.55 53.28 327.22 48.96 332.00 C 45.40 336.35 38.55 337.20 33.89 334.18 C 30.47 332.13 28.30 327.96 28.60 323.99 C 28.73 319.37 32.15 315.14 36.51 313.75 Z" fill="#2b2a28" />
<path d="M 467.76 315.07 C 468.50 319.48 469.53 324.08 471.40 328.16 C 468.41 330.17 466.01 332.34 463.82 335.22 C 455.33 334.79 447.06 335.30 439.19 338.78 C 438.76 337.14 438.14 335.71 437.36 334.21 C 441.26 334.12 445.09 333.96 448.85 332.77 C 456.43 330.57 462.51 324.95 465.91 317.90 C 466.46 317.03 466.73 315.45 467.76 315.07 Z" fill="#2b2a28" />
<path d="M 608.00 314.63 C 618.11 314.56 626.64 320.17 632.52 328.06 C 631.79 330.00 631.05 331.88 630.62 333.91 L 629.70 333.42 C 628.34 328.97 623.76 325.45 619.99 323.02 C 613.62 319.00 606.02 318.41 599.00 321.09 C 594.51 322.87 589.56 325.73 586.99 329.95 C 585.96 328.49 584.63 326.90 583.91 325.27 C 590.10 318.54 598.76 314.35 608.00 314.63 Z" fill="#2b2a28" />
<path d="M 37.49 316.67 C 43.35 314.71 49.76 319.81 48.54 326.00 C 47.74 331.22 41.58 334.39 36.80 332.22 C 33.65 330.87 31.28 327.49 31.69 323.99 C 31.86 320.50 34.31 317.85 37.49 316.67 Z" fill="#ffffff" />
<path d="M 661.81 317.35 C 669.92 320.32 675.81 328.29 675.79 337.00 C 675.83 344.69 671.28 351.94 664.51 355.50 C 658.79 358.69 651.50 359.02 645.50 356.40 C 638.24 353.41 632.66 345.95 632.46 338.00 C 632.09 332.02 634.60 326.05 638.98 321.99 C 644.94 316.20 654.05 314.41 661.81 317.35 Z" fill="#2b2a28" />
<path d="M 661.14 318.89 C 668.59 321.44 674.33 329.01 674.03 336.99 C 674.33 342.26 671.78 347.44 668.03 351.04 C 662.27 356.47 653.40 358.01 646.14 354.88 C 639.04 352.03 633.93 344.73 634.10 337.02 C 633.93 330.63 637.54 324.28 642.96 320.93 C 648.07 317.40 655.40 316.67 661.14 318.89 Z" fill="#ffffff" />
<path d="M 574.64 323.32 C 582.33 328.86 586.31 338.88 584.28 348.18 C 582.18 359.09 572.08 367.62 561.00 368.01 C 552.43 368.55 543.70 364.22 538.98 357.02 C 534.13 350.04 533.34 340.55 537.03 332.89 C 540.42 325.53 547.75 319.84 555.83 318.78 C 562.29 317.63 569.40 319.36 574.64 323.32 Z" fill="#2b2a28" />
<path d="M 664.10 321.85 C 669.80 325.44 672.93 332.35 672.13 339.01 C 671.59 344.47 668.26 349.76 663.47 352.48 C 658.52 355.56 651.91 355.82 646.67 353.33 C 640.12 350.36 635.78 343.17 636.32 335.97 C 636.59 329.67 640.41 323.85 645.99 320.96 C 651.62 318.00 658.80 318.31 664.10 321.85 Z" fill="#2b2a28" />
<path d="M 566.01 320.94 C 572.88 322.66 578.79 327.98 581.48 334.51 C 584.53 342.00 583.37 350.99 578.32 357.34 C 573.20 364.15 564.33 367.45 555.97 366.08 C 547.51 364.85 540.15 358.61 537.52 350.47 C 534.20 341.04 538.00 329.78 546.31 324.27 C 551.90 320.33 559.45 318.92 566.01 320.94 Z" fill="#ffffff" />
<path d="M 145.02 324.09 C 146.86 324.11 148.47 324.90 150.32 324.80 C 150.35 325.92 150.13 327.08 150.32 328.19 C 153.40 328.48 156.42 331.33 158.41 333.56 C 164.13 340.46 163.78 351.07 157.45 357.46 C 151.95 363.32 143.01 364.88 135.81 361.31 C 128.91 358.11 124.63 350.57 125.65 342.99 C 126.25 335.83 131.35 330.11 137.96 327.66 L 138.04 326.67 C 131.92 328.19 126.84 333.64 125.01 339.53 C 124.56 339.92 123.97 339.90 123.26 339.46 C 126.29 329.99 135.01 323.61 145.02 324.09 Z" fill="#2b2a28" />
<path d="M 606.17 324.90 C 612.42 324.46 618.87 327.33 622.95 332.05 C 628.68 338.41 629.56 348.03 625.45 355.48 C 621.66 362.43 614.00 367.01 606.00 366.27 C 597.80 365.94 590.85 360.59 587.84 353.04 L 588.28 351.34 C 590.15 352.68 590.44 355.28 591.96 357.04 C 595.79 362.51 602.47 365.18 609.02 364.70 C 616.34 363.98 622.88 359.03 625.24 352.01 C 627.00 346.68 626.68 340.28 623.57 335.49 C 619.39 328.76 610.71 325.03 602.99 327.04 C 597.56 328.18 592.86 332.54 590.33 337.35 C 589.29 337.85 588.79 335.97 589.38 335.40 C 592.93 329.46 599.15 325.19 606.17 324.90 Z" fill="#2b2a28" />
<path d="M 650.14 324.12 C 652.92 323.18 656.11 323.27 658.87 324.26 C 665.41 326.61 669.22 333.76 667.38 340.51 C 665.75 346.37 660.13 350.73 654.00 350.48 C 646.80 350.43 640.65 344.21 640.72 337.00 C 640.63 331.23 644.65 325.84 650.14 324.12 Z" fill="#ffffff" />
<path d="M 150.62 324.96 C 157.64 327.83 162.47 332.74 164.66 340.07 C 164.02 340.73 163.45 341.39 162.79 340.31 C 161.69 334.37 156.51 328.81 150.78 327.01 C 150.71 326.33 150.66 325.64 150.62 324.96 Z" fill="#2b2a28" />
<path d="M 82.90 325.85 L 83.68 326.30 C 83.82 328.26 82.06 327.80 80.79 328.66 C 63.33 337.45 55.36 358.68 60.76 377.15 C 64.18 391.22 75.60 402.56 89.50 406.39 C 102.08 409.87 117.20 407.88 127.51 399.47 C 136.85 391.99 143.63 380.37 144.46 368.34 L 145.90 368.09 L 146.09 369.00 C 144.75 382.42 136.88 395.22 125.71 402.75 C 117.03 408.74 105.82 410.51 95.51 409.23 C 83.12 407.83 71.57 400.66 64.75 390.22 C 57.40 378.77 55.42 363.73 59.90 350.84 C 63.67 339.72 72.04 330.41 82.90 325.85 Z" fill="#2b2a28" />
<path d="M 138.21 326.32 C 142.08 325.60 145.32 325.63 149.21 326.13 C 148.81 326.68 148.34 327.07 147.78 327.30 C 144.86 326.39 140.91 326.61 138.11 327.87 L 138.21 326.32 Z" fill="#ffffff" />
<path d="M 651.48 326.66 C 656.85 325.03 662.53 328.34 664.33 333.51 C 666.48 339.13 663.21 345.65 657.55 347.52 C 652.48 349.43 646.65 346.34 644.61 341.49 C 641.93 335.70 645.34 328.36 651.48 326.66 Z" fill="#2b2a28" />
<path d="M 554.44 327.47 C 559.82 325.53 566.31 326.52 570.60 330.39 C 576.09 334.76 577.94 342.81 575.30 349.24 C 573.30 354.31 568.59 358.33 563.21 359.31 C 557.86 360.39 552.05 358.64 548.29 354.66 C 545.02 351.28 543.29 346.70 543.62 341.99 C 543.89 335.62 548.44 329.58 554.44 327.47 Z" fill="#2b2a28" />
<path d="M 359.99 328.18 C 369.69 328.59 378.99 333.48 384.62 341.41 C 388.53 346.73 390.63 353.42 390.45 360.02 C 390.40 369.59 385.42 379.14 377.56 384.60 C 367.81 392.04 353.70 392.85 342.98 387.02 C 334.05 382.28 327.62 373.10 326.57 363.01 C 325.54 354.69 328.16 345.97 333.66 339.63 C 339.99 331.85 350.01 327.63 359.99 328.18 Z" fill="#2b2a28" />
<path d="M 651.37 328.38 C 653.86 327.73 656.61 327.72 658.84 329.17 C 664.17 332.17 664.83 340.23 660.15 344.16 C 655.70 348.24 648.39 346.38 646.13 340.88 C 643.89 336.00 646.46 330.32 651.37 328.38 Z" fill="#ffffff" />
<path d="M 140.51 331.73 C 146.92 330.06 153.90 333.30 156.69 339.32 C 157.96 341.73 158.04 344.35 157.80 347.01 C 156.96 352.98 151.89 357.64 146.01 358.50 C 138.33 359.70 130.54 353.92 130.10 346.03 C 129.42 339.38 134.15 333.34 140.51 331.73 Z" fill="#ffffff" />
<path d="M 472.36 331.05 C 473.62 330.80 473.90 332.37 472.96 332.91 C 471.33 333.96 470.22 336.43 468.31 336.74 L 467.89 335.95 C 468.85 334.15 471.04 332.70 472.36 331.05 Z" fill="#2b2a28" />
<path d="M 88.91 333.15 C 91.55 335.68 94.19 338.04 97.35 339.94 L 96.87 340.57 C 85.61 342.12 76.21 351.46 75.76 363.00 C 75.54 370.39 77.89 379.32 83.88 384.15 C 90.07 389.44 98.89 392.47 107.00 390.87 C 113.61 389.54 118.86 384.96 122.56 379.51 C 126.49 374.45 127.25 368.36 127.37 362.14 C 130.42 364.38 133.19 366.33 136.70 367.86 C 136.08 370.21 135.49 372.56 134.73 374.87 C 131.64 384.45 125.33 392.71 116.20 397.21 C 106.41 402.16 94.60 400.90 85.11 395.89 C 78.68 392.46 72.53 386.94 69.95 379.97 C 66.13 370.78 65.27 360.46 69.36 351.19 C 73.04 342.75 80.35 336.35 88.91 333.15 Z" fill="#2b2a28" />
<path d="M 141.49 334.67 C 147.45 332.93 153.68 337.44 154.37 343.49 C 155.53 350.12 149.72 356.60 143.00 355.75 C 137.69 355.15 133.62 350.30 133.75 345.00 C 133.68 340.41 136.94 335.74 141.49 334.67 Z" fill="#2b2a28" />
<path d="M 143.13 336.02 C 149.04 335.22 153.80 340.81 152.79 346.51 C 152.07 351.20 147.79 354.85 142.98 354.06 C 137.51 353.54 133.79 346.99 135.91 341.98 C 136.77 338.97 139.96 336.12 143.13 336.02 Z" fill="#ffffff" />
<path d="M 352.54 337.88 C 361.97 335.62 372.31 339.13 377.66 347.35 C 382.52 354.29 382.70 363.94 378.08 371.04 C 374.90 376.40 369.06 380.12 363.02 381.35 C 353.89 383.33 343.75 379.10 338.81 371.16 C 334.69 364.85 334.32 356.43 337.72 349.72 C 340.70 343.82 346.20 339.62 352.54 337.88 Z" fill="#ffffff" />
<path d="M 281.95 347.08 C 290.94 354.27 297.18 365.45 297.88 377.00 C 298.63 389.21 294.64 402.16 286.01 411.01 C 278.91 418.52 268.09 422.23 258.01 423.19 C 247.45 424.05 236.66 421.49 228.43 414.60 C 216.41 405.48 212.01 388.24 212.77 373.82 C 216.02 372.42 218.94 371.10 221.93 369.11 C 220.31 373.57 220.07 378.32 220.59 383.01 C 221.79 392.41 224.73 401.47 232.14 407.84 C 239.73 414.53 250.12 416.94 260.01 415.34 C 268.40 414.02 276.54 410.74 282.10 404.08 C 289.11 395.56 291.90 383.57 289.74 372.81 C 287.19 362.22 279.60 352.36 269.21 348.51 C 260.41 344.99 250.61 345.25 241.87 348.83 C 243.29 345.75 244.52 342.75 245.57 339.53 C 258.09 336.49 271.72 339.21 281.95 347.08 Z" fill="#2b2a28" />
<path d="M 557.36 338.34 C 561.27 335.91 566.25 339.46 565.60 343.84 C 565.33 346.63 562.76 348.79 559.99 348.77 C 557.00 348.67 554.43 346.02 554.59 342.97 C 554.52 341.17 555.87 339.28 557.36 338.34 Z" fill="#ffffff" />
<path d="M 124.57 348.37 C 126.21 357.91 135.38 364.89 145.01 364.14 C 153.91 363.91 161.80 356.94 163.25 348.19 C 164.02 345.61 162.37 342.96 164.94 341.10 C 166.22 350.24 162.18 358.65 154.18 363.20 C 147.06 367.14 137.85 366.57 131.28 361.75 C 124.22 356.62 121.44 348.09 123.13 339.62 C 125.59 342.49 123.34 344.84 124.57 348.37 Z" fill="#2b2a28" />
<path d="M 459.00 342.72 C 468.08 342.61 476.53 346.19 484.01 351.07 C 485.22 351.62 484.98 352.58 483.98 353.20 C 476.10 347.26 465.92 343.65 455.99 344.30 C 446.97 345.02 438.17 348.40 431.17 354.18 C 421.65 361.88 415.13 373.59 415.27 386.00 C 415.86 395.73 418.74 405.49 424.70 413.32 C 430.81 421.67 440.81 426.96 450.99 428.18 C 463.24 430.29 476.60 427.38 485.99 418.97 C 492.16 413.62 495.84 406.70 499.23 399.44 C 499.64 399.70 500.03 399.97 500.40 400.26 C 498.77 404.40 496.65 408.41 494.15 412.09 C 487.30 422.21 476.24 429.06 464.00 430.11 C 453.41 431.19 441.74 429.22 432.79 423.20 C 425.85 418.45 420.62 411.60 417.53 403.80 C 413.84 394.51 412.29 383.87 415.41 374.20 C 421.27 355.94 439.68 342.19 459.00 342.72 Z" fill="#2b2a28" />
<path d="M 98.48 345.64 C 104.97 344.50 111.85 346.87 116.15 351.87 C 121.11 357.26 122.70 365.27 120.40 372.19 C 118.84 377.05 115.30 381.40 110.76 383.76 C 106.09 386.32 100.14 386.63 95.16 384.87 C 87.76 382.17 82.44 374.86 82.10 367.00 C 81.31 356.98 88.44 347.24 98.48 345.64 Z" fill="#2b2a28" />
<path d="M 116.62 345.01 C 117.77 344.76 118.86 344.76 119.88 345.04 C 120.71 345.87 120.44 347.77 120.66 348.89 C 119.05 348.20 118.27 346.03 116.62 345.01 Z" fill="#2b2a28" />
<path d="M 633.29 347.91 C 634.66 350.06 635.56 352.04 637.55 353.81 C 634.81 362.45 629.58 369.21 621.49 373.42 C 613.37 378.02 603.99 377.86 595.44 374.56 C 589.64 372.52 585.25 368.51 581.53 363.74 C 582.79 362.24 583.89 360.79 584.93 359.12 C 590.84 368.53 602.75 373.34 613.53 370.48 C 623.79 367.95 631.97 358.33 633.29 347.91 Z" fill="#2b2a28" />
<path d="M 510.20 349.75 C 519.40 352.16 526.62 360.64 527.32 370.16 C 528.17 378.20 524.46 386.20 517.99 390.96 C 511.53 395.99 502.54 396.94 494.99 393.94 C 494.07 393.61 493.14 392.73 492.15 392.87 C 491.76 392.34 491.25 391.89 490.63 391.52 C 485.06 387.92 481.19 381.43 480.52 374.86 C 479.50 366.52 483.40 358.02 490.28 353.24 C 495.91 349.16 503.51 347.76 510.20 349.75 Z" fill="#2b2a28" />
<path d="M 508.03 350.94 C 516.18 352.36 523.25 358.90 525.15 366.97 C 527.07 373.90 524.95 381.83 520.03 387.03 C 514.60 393.05 505.57 395.47 497.83 393.15 C 488.91 390.76 482.19 382.27 482.02 373.02 C 481.68 366.45 484.69 359.91 489.72 355.71 C 494.61 351.50 501.70 349.57 508.03 350.94 Z" fill="#ffffff" />
<path d="M 453.15 352.16 C 462.63 350.69 471.81 353.62 479.42 359.24 C 477.54 362.25 476.27 365.18 476.25 368.80 C 475.05 368.96 474.77 367.83 473.82 367.20 C 467.71 362.40 458.60 359.26 450.99 361.85 C 444.71 363.65 439.35 368.37 435.58 373.56 C 428.88 384.34 431.98 400.37 442.29 407.83 C 448.80 412.49 457.12 414.49 464.80 411.59 C 471.58 409.02 478.09 403.99 481.46 397.49 C 482.67 395.54 482.65 393.02 483.71 391.20 C 486.06 394.00 489.32 395.60 491.96 397.99 C 488.65 406.25 482.72 412.65 475.14 417.21 C 465.96 423.09 454.45 423.59 444.50 419.36 C 434.07 415.33 426.29 405.89 423.96 395.00 C 421.97 386.01 423.08 376.04 428.21 368.25 C 434.26 360.01 442.76 353.42 453.15 352.16 Z" fill="#2b2a28" />
<path d="M 499.51 353.76 C 508.68 351.43 518.22 356.68 521.51 365.46 C 524.02 371.77 522.95 379.33 518.65 384.61 C 514.41 390.15 507.00 392.95 500.16 391.42 C 491.92 389.83 485.63 382.32 485.12 374.00 C 484.32 364.85 490.50 355.87 499.51 353.76 Z" fill="#2b2a28" />
<path d="M 97.41 355.44 C 103.15 352.54 110.06 356.17 111.82 362.10 C 113.62 367.50 111.09 373.58 105.95 376.01 C 101.59 378.09 96.13 376.49 93.36 372.60 C 89.17 367.04 90.97 358.38 97.41 355.44 Z" fill="#ffffff" />
<path d="M 249.50 358.72 C 259.26 355.94 269.91 360.26 275.18 368.86 C 281.13 378.11 279.37 390.90 271.40 398.39 C 265.75 403.69 257.53 405.92 250.00 403.97 C 240.37 401.67 233.09 392.90 232.49 383.03 C 231.53 372.12 238.88 361.49 249.50 358.72 Z" fill="#2b2a28" />
<path d="M 501.47 359.58 C 508.43 358.02 515.31 363.08 516.54 370.00 C 517.99 377.05 513.17 384.37 506.03 385.55 C 500.02 386.66 493.93 382.84 491.92 377.14 C 489.18 369.73 493.63 361.13 501.47 359.58 Z" fill="#ffffff" />
<path d="M 469.67 370.28 C 475.84 374.52 479.24 382.66 477.86 390.02 C 476.56 399.18 468.31 406.73 459.00 406.92 C 450.62 407.48 442.63 402.19 439.55 394.45 C 435.99 386.09 438.86 375.52 446.41 370.38 C 452.98 365.24 463.03 365.29 469.67 370.28 Z" fill="#2b2a28" />
<path d="M 187.50 373.69 C 195.86 370.91 205.19 375.73 207.84 384.09 C 210.43 391.89 206.35 400.61 198.81 403.74 C 193.43 406.02 186.99 405.32 182.45 401.56 C 177.69 398.04 175.36 391.80 176.56 386.01 C 177.46 380.32 182.04 375.37 187.50 373.69 Z" fill="#2b2a28" />
<path d="M 190.55 375.91 C 196.18 375.02 200.93 377.92 204.19 382.33 C 203.45 382.99 203.23 382.91 202.52 382.26 C 201.05 379.74 198.72 378.48 196.17 377.26 C 195.72 379.35 198.26 379.11 199.52 380.50 C 202.39 382.74 203.87 386.42 203.52 390.01 C 203.34 393.89 200.05 398.22 196.19 399.00 C 196.11 399.46 196.06 399.93 196.04 400.41 C 202.35 398.84 206.91 390.73 203.63 384.77 C 204.22 384.19 204.68 384.12 205.01 384.56 C 207.35 390.40 204.55 397.07 199.30 400.27 C 196.31 402.24 193.22 402.23 189.77 402.21 C 189.02 401.64 189.17 401.22 189.75 400.59 C 191.47 400.89 193.22 400.99 195.00 400.89 C 194.98 400.37 194.89 399.87 194.73 399.41 C 189.58 401.32 183.13 397.19 181.72 392.05 C 180.87 389.06 181.20 385.65 183.01 383.08 C 185.80 378.72 191.41 376.95 196.28 378.54 C 196.35 376.34 192.39 376.85 190.98 377.03 C 185.02 377.54 180.02 383.00 180.21 389.00 C 180.16 393.50 182.92 397.85 187.03 399.65 C 187.93 400.30 187.93 400.54 187.31 401.42 C 182.93 398.93 179.48 395.27 179.17 390.03 C 178.41 383.21 183.85 376.80 190.55 375.91 Z" fill="#ffffff" />
<path d="M 453.50 376.61 C 461.36 372.98 470.01 379.60 469.04 388.02 C 468.46 393.26 464.25 397.35 459.02 397.87 C 452.80 398.53 447.09 393.20 447.10 386.99 C 446.92 382.56 449.57 378.53 453.50 376.61 Z" fill="#ffffff" />
<path d="M 189.50 382.62 C 193.31 380.60 198.54 383.35 199.45 387.46 C 200.48 391.27 197.88 395.35 194.04 396.14 C 190.61 396.99 186.69 394.90 185.62 391.51 C 184.27 387.99 186.11 384.10 189.50 382.62 Z" fill="#2b2a28" />
<path d="M 191.14 384.10 C 195.09 383.20 198.87 386.89 197.45 390.83 C 196.14 394.55 191.05 395.60 188.44 392.56 C 185.73 389.68 187.38 384.99 191.14 384.10 Z" fill="#ffffff" />
<path d="M 305.96 383.30 L 306.74 384.06 C 313.26 398.21 326.69 409.22 341.19 414.48 C 352.08 418.52 363.83 418.03 374.84 414.70 C 387.54 410.83 398.30 402.78 406.51 392.47 C 406.62 398.07 407.53 403.61 409.61 408.83 C 401.53 416.34 391.92 422.64 381.48 426.39 C 367.30 431.73 351.45 431.65 337.19 426.61 C 323.19 421.85 311.47 412.90 301.92 401.75 C 304.33 395.96 305.54 389.54 305.96 383.30 Z" fill="#2b2a28" /></svg>