<?xml version="1.0" encoding="UTF-8" standalone="no"?>
<!DOCTYPE svg PUBLIC "-//W3C//DTD SVG 1.1//EN" "http://www.w3.org/Graphics/SVG/1.1/DTD/svg11.dtd">
<svg viewBox="0 0 512 512" height="512.0pt" width="512.0pt" xmlns="http://www.w3.org/2000/svg" version="1.1">
<path d="M 257.64 21.39 C 263.88 30.31 269.79 39.47 276.13 48.31 C 276.15 40.85 276.38 33.36 276.09 25.91 C 276.38 24.02 273.34 23.99 272.15 23.39 C 272.35 22.71 272.55 22.02 272.74 21.34 C 276.22 21.34 279.69 21.33 283.16 21.36 C 283.03 21.92 282.91 22.49 282.79 23.06 C 281.25 24.28 279.33 24.68 279.33 26.98 C 278.90 32.96 278.90 39.00 278.74 45.00 C 278.54 49.76 279.17 53.97 277.56 58.54 C 270.34 48.44 263.64 37.98 256.52 27.81 C 256.26 36.30 256.18 44.95 256.43 53.44 C 257.86 53.47 259.29 53.49 260.72 53.52 C 260.64 54.29 260.55 55.07 260.47 55.84 C 256.63 56.14 252.80 56.16 248.96 56.01 C 250.11 54.56 251.32 53.38 252.77 52.23 C 253.63 45.90 253.31 39.39 253.66 33.00 C 253.64 30.39 254.17 27.31 253.27 24.83 C 251.76 24.05 250.13 23.51 248.56 22.85 C 250.33 20.24 254.87 21.68 257.64 21.39 Z" fill="#3d405b" />
<path d="M 264.38 69.42 C 265.80 68.14 267.04 68.52 268.06 69.97 C 269.43 72.65 270.14 75.70 271.14 78.54 C 295.29 79.44 319.22 84.55 341.15 94.84 C 368.02 107.33 391.60 126.96 409.42 150.57 C 428.33 175.86 439.98 206.60 443.16 237.98 C 443.67 242.20 443.40 246.58 444.18 250.75 C 446.93 252.12 450.19 252.58 452.87 254.08 C 454.21 255.02 453.98 256.11 453.36 257.42 C 450.62 259.20 446.94 259.48 444.18 261.16 C 443.83 262.73 443.74 264.38 443.62 265.99 C 442.79 284.48 438.80 302.89 432.18 320.16 C 420.19 350.83 399.10 377.98 372.96 397.91 C 348.19 416.66 318.22 428.25 287.46 432.06 C 282.09 432.81 276.61 432.60 271.25 433.41 C 269.45 437.14 269.32 440.97 266.11 443.97 C 262.87 440.96 262.47 437.22 261.08 433.24 C 234.36 432.18 208.10 426.05 184.31 413.69 C 156.06 398.94 131.69 376.28 114.63 349.39 C 98.09 323.05 89.08 291.92 88.15 260.88 C 85.10 259.58 79.65 259.25 78.04 256.08 C 78.90 252.12 85.84 252.90 88.02 250.29 C 88.47 248.25 88.41 246.08 88.55 244.00 C 89.89 221.11 96.00 198.73 105.98 178.11 C 120.73 147.97 144.18 122.35 172.74 104.76 C 199.29 88.24 230.00 79.48 261.19 78.47 C 262.13 75.49 262.77 72.12 264.38 69.42 Z" fill="#3d405b" />
<path d="M 266.07 79.97 C 266.26 88.31 266.10 96.66 266.15 105.00 C 266.09 153.18 266.28 201.39 266.06 249.57 C 264.39 246.61 262.94 243.55 261.50 240.48 C 252.26 220.66 242.78 200.95 233.63 181.10 C 244.00 148.68 254.27 116.22 264.66 83.80 L 264.94 83.00 C 265.31 81.99 265.68 80.98 266.07 79.97 Z" fill="#f4f1de" />
<path d="M 272.59 83.51 C 292.76 84.31 312.70 88.54 331.42 96.11 C 330.04 99.73 328.60 103.34 327.11 106.92 C 313.89 101.66 300.14 97.97 286.00 96.28 C 282.90 95.86 279.71 95.83 276.66 95.19 C 275.18 92.52 274.46 89.35 273.51 86.46 C 273.21 85.48 272.90 84.49 272.59 83.51 Z" fill="#f4f1de" />
<path d="M 198.29 97.11 C 199.83 100.67 201.40 104.22 202.88 107.80 C 183.37 116.23 165.78 128.13 150.83 143.25 C 148.23 140.39 145.60 137.57 142.96 134.75 C 158.72 118.67 177.64 106.03 198.29 97.11 Z" fill="#f4f1de" />
<path d="M 254.15 100.35 C 245.83 126.21 237.70 152.14 229.33 177.99 C 210.15 169.78 190.97 161.59 171.78 153.40 C 168.55 152.06 165.32 150.41 161.95 149.50 C 160.66 148.78 158.90 150.59 159.26 151.95 C 159.94 154.90 161.49 157.69 162.66 160.48 C 171.07 180.09 179.50 199.69 187.91 219.31 C 161.97 227.53 136.05 235.80 110.09 243.95 C 111.32 230.25 114.02 216.47 118.64 203.50 C 128.67 174.61 148.41 149.07 172.72 130.72 C 196.32 112.87 224.77 102.90 254.15 100.35 Z" fill="#f4f1de" />
<path d="M 278.03 100.39 C 291.88 101.58 305.75 104.43 318.83 109.19 C 345.52 118.80 369.34 135.75 387.27 157.73 C 407.21 182.04 419.68 212.51 421.92 243.91 C 396.01 235.73 370.11 227.53 344.23 219.27 C 352.78 199.47 361.24 179.63 369.79 159.84 C 370.87 157.27 372.25 154.69 372.91 151.98 C 372.62 150.87 371.87 149.84 371.30 148.85 C 348.42 158.45 325.58 168.17 302.82 178.05 C 294.53 152.17 286.28 126.28 278.03 100.39 Z" fill="#f4f1de" />
<path d="M 388.56 134.06 C 404.53 150.12 417.63 169.41 426.10 190.43 C 422.56 191.92 419.02 193.41 415.50 194.94 C 407.25 175.12 395.21 157.08 379.96 141.96 C 382.78 139.28 385.57 136.54 388.56 134.06 Z" fill="#f4f1de" />
<path d="M 166.52 156.74 C 167.54 157.64 168.52 158.57 169.48 159.52 C 197.21 187.11 224.85 214.82 252.61 242.39 C 255.27 245.03 257.95 247.62 260.43 250.43 C 238.79 240.58 217.35 230.23 195.77 220.24 C 193.42 219.29 192.59 217.71 191.67 215.49 C 183.41 195.86 174.72 176.39 166.52 156.74 Z" fill="#f4f1de" />
<path d="M 365.43 156.71 C 363.27 159.12 360.98 161.40 358.68 163.68 C 342.78 179.45 326.95 195.28 311.10 211.10 C 297.79 224.08 284.93 237.56 271.46 250.38 C 281.47 228.82 291.77 207.37 301.84 185.83 C 302.79 183.71 303.83 182.92 305.95 182.05 C 325.80 173.66 345.55 165.01 365.43 156.71 Z" fill="#f4f1de" />
<path d="M 105.72 191.02 C 109.28 192.41 112.84 193.82 116.40 195.21 C 111.89 207.52 108.06 219.95 106.36 232.99 C 105.62 237.13 105.77 241.51 104.67 245.54 C 101.02 247.24 96.97 248.13 93.16 249.42 C 93.88 230.36 97.69 211.59 104.63 193.82 C 104.99 192.89 105.36 191.95 105.72 191.02 Z" fill="#f4f1de" />
<path d="M 341.01 223.74 C 342.71 223.92 344.41 224.48 346.03 224.98 C 378.05 235.37 410.30 245.20 442.26 255.73 C 439.84 255.84 437.42 255.89 435.00 255.87 C 380.78 255.79 326.51 255.94 272.30 255.80 C 293.39 245.63 314.73 235.93 335.87 225.84 C 337.52 225.06 339.25 224.23 341.01 223.74 Z" fill="#f4f1de" />
<path d="M 24.11 238.70 C 28.32 238.24 32.62 238.44 36.86 238.31 C 36.77 238.89 36.69 239.47 36.60 240.05 C 35.12 240.64 33.28 240.95 32.04 241.98 C 33.78 250.75 36.44 259.45 38.87 268.06 C 41.12 262.24 43.19 256.36 45.43 250.53 C 45.95 248.85 47.03 246.67 46.20 244.98 C 45.19 241.86 42.46 241.35 39.93 239.78 C 44.33 237.48 50.36 238.74 55.21 238.28 C 55.12 238.89 55.04 239.50 54.95 240.11 C 53.41 240.59 51.59 240.93 50.27 241.87 C 51.93 250.69 54.70 259.39 57.14 268.04 C 58.89 263.44 60.53 258.80 62.19 254.17 C 63.72 249.86 65.47 245.79 66.07 241.21 C 63.94 240.90 61.81 240.69 59.66 240.55 C 59.72 239.85 59.78 239.16 59.84 238.46 C 64.28 238.46 68.71 238.46 73.14 238.45 C 73.07 239.05 73.00 239.65 72.93 240.24 C 71.30 241.31 69.82 242.19 69.13 244.13 C 65.69 252.71 62.50 261.41 59.09 270.01 C 58.40 272.26 56.70 272.95 54.90 274.20 C 52.45 266.38 50.32 258.45 47.73 250.68 C 45.14 257.31 43.05 264.14 40.56 270.81 C 40.03 272.49 38.08 273.19 36.76 274.26 C 33.36 264.42 30.74 254.31 27.51 244.42 C 26.70 241.74 23.92 241.27 21.81 239.83 C 22.55 239.40 23.32 239.02 24.11 238.70 Z" fill="#3d405b" />
<path d="M 465.47 238.54 C 473.20 238.08 481.05 238.50 488.80 238.37 C 488.36 241.36 487.91 244.35 487.45 247.33 C 486.78 247.35 486.12 247.38 485.46 247.40 C 485.21 245.66 485.07 243.84 484.55 242.16 C 481.27 240.95 477.08 241.35 473.63 241.65 C 472.72 245.64 472.83 249.94 472.63 254.02 C 476.87 253.80 481.10 253.63 485.33 253.41 C 484.96 254.48 484.58 255.54 484.20 256.60 C 480.34 256.68 476.48 256.75 472.62 256.83 C 472.38 261.28 472.23 265.81 472.62 270.25 C 476.44 270.25 480.98 270.91 484.59 269.52 C 486.57 267.59 486.70 264.48 489.38 262.93 C 489.18 266.40 488.63 269.82 488.10 273.25 C 479.82 273.00 471.59 273.03 463.31 273.12 C 464.90 271.71 466.51 270.30 468.08 268.87 C 468.62 266.68 468.52 264.28 468.57 262.03 C 468.52 255.16 468.64 248.28 468.47 241.41 C 467.05 241.10 465.63 240.79 464.21 240.48 C 464.61 239.82 465.03 239.18 465.47 238.54 Z" fill="#3d405b" />
<path d="M 89.69 255.91 C 146.45 255.79 203.25 255.83 260.02 255.89 C 253.30 259.36 246.35 262.35 239.55 265.64 C 223.35 273.14 207.26 280.86 191.02 288.25 C 158.32 277.84 125.52 267.53 92.84 257.11 C 91.79 256.72 90.74 256.32 89.69 255.91 Z" fill="#f4f1de" />
<path d="M 260.80 261.27 C 250.79 282.73 240.55 304.09 230.54 325.55 C 229.57 327.63 228.76 328.80 226.53 329.63 C 206.59 338.07 186.73 346.74 166.76 355.10 C 167.76 353.98 168.78 352.88 169.83 351.81 C 190.84 330.83 211.90 309.90 232.90 288.90 C 242.30 279.79 251.31 270.28 260.80 261.27 Z" fill="#f4f1de" />
<path d="M 271.60 261.36 C 276.28 263.20 280.82 265.52 285.38 267.64 C 301.01 274.94 316.59 282.33 332.23 289.60 C 335.01 291.10 338.80 291.82 339.95 295.11 C 348.47 315.09 357.20 335.01 365.61 355.03 C 346.78 336.66 328.31 317.86 309.59 299.41 C 296.97 286.70 284.17 274.12 271.60 261.36 Z" fill="#f4f1de" />
<path d="M 266.18 262.10 C 276.72 283.89 286.87 305.88 297.29 327.73 C 299.31 331.33 297.36 333.99 296.44 337.52 C 286.32 368.88 276.37 400.33 266.34 431.72 C 266.11 428.48 266.06 425.24 266.08 422.00 C 266.17 368.71 265.98 315.39 266.18 262.10 Z" fill="#f4f1de" />
<path d="M 438.99 262.39 C 438.11 283.43 433.54 304.24 425.19 323.59 C 421.59 322.15 417.98 320.73 414.38 319.31 C 419.61 307.04 423.38 294.17 425.44 280.99 C 426.24 276.05 426.59 271.07 427.24 266.12 C 431.15 264.86 435.07 263.62 438.99 262.39 Z" fill="#f4f1de" />
<path d="M 110.08 267.79 C 136.02 276.05 161.98 284.22 187.91 292.50 C 178.67 314.05 169.38 335.60 160.10 357.13 C 159.45 358.97 158.51 360.33 160.04 362.06 C 161.46 363.00 163.75 361.74 165.22 361.25 C 186.56 352.05 208.00 343.06 229.32 333.78 C 237.70 359.63 245.79 385.58 254.18 411.43 C 237.41 409.84 220.99 406.09 205.44 399.53 C 178.10 388.16 154.69 368.49 137.56 344.45 C 121.58 321.92 112.47 295.24 110.08 267.79 Z" fill="#f4f1de" />
<path d="M 421.80 267.93 C 419.44 310.36 397.51 350.10 364.77 376.77 C 340.27 396.88 309.78 409.18 278.11 411.21 C 286.27 385.38 294.61 359.61 302.77 333.78 C 322.67 342.33 342.62 350.77 362.52 359.34 C 365.31 360.53 368.17 361.94 371.12 362.68 C 371.81 362.12 372.45 361.52 373.03 360.87 C 372.73 358.13 371.27 355.37 370.21 352.83 C 361.49 332.74 352.96 312.57 344.21 292.49 C 370.07 284.32 395.93 276.08 421.80 267.93 Z" fill="#f4f1de" />
<path d="M 116.87 317.25 C 124.99 336.70 136.55 354.01 151.35 369.00 C 148.52 371.65 145.70 374.30 142.90 376.98 C 127.20 361.18 114.76 342.32 106.13 321.79 C 109.71 320.29 113.29 318.77 116.87 317.25 Z" fill="#f4f1de" />
<path d="M 378.70 371.20 C 381.41 373.92 383.92 376.85 386.50 379.70 C 370.30 395.35 351.09 407.81 330.13 416.08 C 328.63 412.54 327.12 409.01 325.56 405.49 C 345.51 397.46 363.09 385.96 378.70 371.20 Z" fill="#f4f1de" />
<path d="M 202.80 403.95 C 212.32 407.71 221.98 411.02 232.02 413.09 C 239.85 414.87 247.76 415.67 255.74 416.46 C 257.07 420.39 258.32 424.35 259.58 428.30 C 238.52 427.28 217.76 422.96 198.38 414.57 C 199.87 411.04 201.21 407.44 202.80 403.95 Z" fill="#f4f1de" />
<path d="M 277.51 456.36 C 277.02 459.79 276.55 463.26 275.87 466.64 C 273.29 465.07 274.22 462.30 273.33 459.68 C 271.39 457.45 267.00 457.93 264.44 458.55 C 261.34 459.39 259.55 462.73 261.51 465.57 C 265.51 470.16 272.84 471.65 276.76 476.27 C 279.91 480.77 277.17 486.42 272.77 488.79 C 267.30 491.81 261.80 490.65 256.18 488.86 C 256.54 485.57 255.66 480.61 258.02 478.03 C 259.26 480.51 259.25 483.24 260.21 485.77 C 260.98 487.79 263.12 487.86 264.96 487.94 C 267.70 487.89 270.61 487.78 272.54 485.54 C 274.22 483.59 273.98 480.64 272.16 478.87 C 268.14 475.06 261.53 473.31 257.95 469.03 C 255.08 465.06 256.89 460.24 260.58 457.59 C 265.40 453.64 271.95 455.46 277.51 456.36 Z" fill="#3d405b" /></svg>